<svg width="15" height="14" viewBox="0 0 15 14" fill="none" xmlns="http://www.w3.org/2000/svg">
<path d="M8.65096 7.00488L14.463 1.19282C14.7379 0.917926 14.7379 0.485949 14.463 0.211054C14.1881 -0.0638409 13.7561 -0.0638409 13.4813 0.211054L7.66919 6.02312L1.85713 0.211054C1.58223 -0.0638409 1.15026 -0.0638409 0.875361 0.211054C0.600466 0.485949 0.600466 0.917926 0.875361 1.19282L6.68742 7.00488L0.875361 12.8169C0.600466 13.0918 0.600466 13.5238 0.875361 13.7987C0.993173 13.9165 1.18953 13.9951 1.34661 13.9951C1.50369 13.9951 1.70005 13.9165 1.81786 13.7987L7.62992 7.98665L13.442 13.7987C13.5598 13.9165 13.7561 13.9951 13.9132 13.9951C14.0703 13.9951 14.2667 13.9165 14.3845 13.7987C14.6594 13.5238 14.6594 13.0918 14.3845 12.8169L8.65096 7.00488Z" fill="white"/>
</svg>
