<svg width="40" height="40" viewBox="0 0 40 40" fill="none" xmlns="http://www.w3.org/2000/svg">
<circle cx="20" cy="20" r="20" fill="#00A03B"/>
<path d="M29.2167 26.0384L20.838 9.17614C20.6809 8.86194 20.3666 8.65247 20.0001 8.65247C19.6335 8.65247 19.3193 8.86194 19.1622 9.17614L10.7834 26.0384C10.5739 26.5097 10.731 27.0334 11.2024 27.2429C11.6737 27.4524 12.1973 27.2953 12.4068 26.824L14.8157 21.9538H25.1321L27.541 26.824C27.6981 27.1382 28.0123 27.3476 28.3789 27.3476C28.536 27.3476 28.6407 27.2953 28.7978 27.2429C29.2691 27.0334 29.4262 26.4574 29.2167 26.0384ZM15.7583 20.1209L20.0001 11.585L24.2418 20.1209H15.7583V20.1209Z" fill="white"/>
</svg>
