<svg width="35" height="35" viewBox="0 0 35 35" fill="none" xmlns="http://www.w3.org/2000/svg">
<circle cx="17.5" cy="17.5" r="17.5" fill="#AA198D"/>
<path d="M13.4705 9.71315C12.3814 9.71315 11.4557 10.1488 10.5844 11.1289C9.76759 12.0002 9.38641 12.9804 9.38641 14.015C9.49532 15.812 10.9111 17.1189 10.9111 17.1189L13.9605 19.896L19.5693 13.7427L16.5743 11.02C16.5743 11.02 15.213 9.71315 13.4705 9.71315ZM15.4308 21.2574L18.4258 23.9801C18.4258 23.9801 19.8416 25.287 21.5296 25.287C22.6187 25.287 23.5444 24.8513 24.4157 23.8712C25.2325 22.9454 25.6137 22.0197 25.6137 20.9851C25.5048 19.1881 24.089 17.8812 24.089 17.8812L21.0395 15.1041L15.4308 21.2574ZM21.5296 27.2473C19.0792 27.2473 17.2278 25.6137 17.0644 25.3959L9.60423 18.5891C9.38641 18.4258 7.53498 16.6832 7.42607 14.1239C7.37162 12.5448 7.91616 11.1289 9.11414 9.82206C10.3666 8.46071 11.8368 7.75281 13.4705 7.75281C15.9209 7.75281 17.7723 9.38642 17.9357 9.60424L25.3959 16.411C25.6137 16.5743 27.4651 18.3169 27.574 20.8762C27.6285 22.4554 27.0839 23.8712 25.8859 25.1781C24.6335 26.5939 23.1633 27.2473 21.5296 27.2473Z" fill="white"/>
</svg>
