<svg width="40" height="41" viewBox="0 0 40 41" fill="none" xmlns="http://www.w3.org/2000/svg">
<circle cx="20" cy="20.4786" r="20" fill="#AA198D"/>
<path d="M29.5372 21.9514C29.5372 21.8467 29.5372 21.7419 29.5372 21.6372C29.4849 21.3754 29.3278 21.1135 29.0659 21.0088L19.3256 11.1637C18.959 10.7972 18.383 10.7972 18.0164 11.1637L10.7373 18.4428C10.3708 18.8094 10.3708 19.3854 10.7373 19.752L13.7746 22.7893L20.4777 29.4923C20.6348 29.7541 20.8442 29.9112 21.1061 29.9636C21.1584 29.9636 21.2632 30.016 21.3155 30.016C21.3679 30.016 21.4203 30.016 21.4203 30.016L28.5946 30.0684C28.8565 30.0684 29.0659 29.9636 29.223 29.8065C29.3801 29.6494 29.4849 29.3876 29.4849 29.1781L29.5372 21.9514ZM15.7646 22.1609L18.1211 19.8043L23.5673 25.2506C23.6197 25.3029 23.7244 25.3553 23.7768 25.4077L21.4203 27.7642L15.7646 22.1609ZM24.9813 24.1508C24.9289 24.0985 24.8765 23.9937 24.8242 23.9414L19.378 18.4952L21.7345 16.1386L27.3378 21.7943L24.9813 24.1508ZM18.6972 13.1537L20.4253 14.8818L14.4554 20.8517L12.7273 19.1236L18.6972 13.1537ZM23.5673 28.1308L27.7044 23.9937V28.1308H23.5673Z" fill="white"/>
</svg>
