<svg width="46" height="45" viewBox="0 0 46 45" fill="none" xmlns="http://www.w3.org/2000/svg">
<circle cx="22.79" cy="22.5" r="22.5" fill="#00A03B"/>
<g clip-path="url(#clip0)">
<path d="M21.6727 26.6667C21.8822 26.8767 22.2314 27.0168 22.5107 27.0168C22.5805 27.0168 22.5805 27.0168 22.6504 27.0168C22.9995 26.9468 23.3487 26.8067 23.5582 26.4566L29.0051 18.1232C29.3543 17.563 29.2146 16.7927 28.656 16.4426C28.0973 16.0924 27.3291 16.2325 26.98 16.7927L22.371 23.8655L18.4604 20.084C17.9716 19.5938 17.2034 19.5938 16.7146 20.084C16.2258 20.5742 16.2956 21.3445 16.7146 21.8347L21.6727 26.6667ZM34.0331 10H11.547C10.8487 10 10.29 10.5602 10.29 11.2605V33.8095C10.29 34.5098 10.8487 35.07 11.547 35.07H34.0331C34.7314 35.07 35.29 34.5098 35.29 33.8095V11.2605C35.29 10.5602 34.7314 10 34.0331 10ZM32.7761 32.549H12.7342V12.451H32.8459V32.549H32.7761Z" fill="white"/>
</g>
<defs>
<clipPath id="clip0">
<rect x="10.29" y="10" width="25" height="25" fill="white"/>
</clipPath>
</defs>
</svg>
