<svg width="46" height="46" viewBox="0 0 46 46" fill="none" xmlns="http://www.w3.org/2000/svg">
<circle cx="22.665" cy="23.333" r="22.5" fill="#AFCB37"/>
<path d="M22.7242 12.2461C20.1337 12.2461 17.9633 14.3464 17.9633 17.0069C17.9633 19.5974 20.0637 21.7677 22.7242 21.7677C25.3146 21.7677 27.485 19.6674 27.485 17.0069C27.485 14.4165 25.3846 12.2461 22.7242 12.2461ZM33.296 34.79C32.5959 34.79 32.0358 34.2299 32.0358 33.5298C32.0358 28.4189 27.835 24.2182 22.7242 24.2182C17.6133 24.2182 13.4125 28.4189 13.4125 33.5298C13.4125 34.2299 12.8524 34.79 12.1523 34.79C11.4522 34.79 10.8921 34.2299 10.8921 33.5298C10.8921 28.6289 13.9026 24.4282 18.1734 22.6779C16.4931 21.3477 15.4429 19.3173 15.4429 17.0069C15.4429 13.0162 18.6634 9.79565 22.6541 9.79565C26.6448 9.79565 29.8654 13.0162 29.8654 17.0069C29.8654 19.3173 28.8152 21.3477 27.1349 22.6779C31.4057 24.4282 34.4162 28.6289 34.4162 33.5298C34.5562 34.2299 33.9961 34.79 33.296 34.79Z" fill="white"/>
</svg>
