<svg width="35" height="36" viewBox="0 0 35 36" fill="none" xmlns="http://www.w3.org/2000/svg">
<circle cx="17.5" cy="17.5879" r="17.5" fill="#3C7E79"/>
<path d="M27.3179 8.70638H25.6271V7.77914C25.6271 7.23371 25.1907 6.79736 24.6453 6.79736C24.0999 6.79736 23.7181 7.23371 23.7181 7.77914V8.76092H20.8273V7.77914C20.8273 7.23371 20.3909 6.79736 19.8455 6.79736C19.3001 6.79736 18.8637 7.23371 18.8637 7.77914V8.76092H15.9729V7.77914C15.9729 7.23371 15.5366 6.79736 14.9911 6.79736C14.4457 6.79736 14.0094 7.23371 14.0094 7.77914V8.76092H11.1186V7.77914C11.1186 7.23371 10.6822 6.79736 10.1368 6.79736C9.59135 6.79736 9.37317 7.23371 9.37317 7.77914V8.76092H7.68233C6.31875 8.70638 5.17334 9.85179 5.17334 11.2154V23.8694C5.17334 25.233 6.31875 26.3784 7.68233 26.3784H27.3179C28.6815 26.3784 29.8269 25.233 29.8269 23.8694V11.2154C29.8269 9.85179 28.6815 8.70638 27.3179 8.70638ZM27.9179 23.8149C27.9179 24.1421 27.6452 24.4148 27.3179 24.4148H7.68233C7.35507 24.4148 7.08235 24.1421 7.08235 23.8149V11.2154C7.08235 10.8881 7.35507 10.6154 7.68233 10.6154H9.37317V11.5972C9.37317 12.1426 9.80952 12.579 10.355 12.579C10.9004 12.579 11.3367 12.1426 11.3367 11.5972V10.6154H14.2275V11.5972C14.2275 12.1426 14.6639 12.579 15.2093 12.579C15.7547 12.579 16.1911 12.1426 16.1911 11.5972V10.6154H19.0819V11.5972C19.0819 12.1426 19.5182 12.579 20.0637 12.579C20.6091 12.579 21.0454 12.1426 21.0454 11.5972V10.6154H23.7181V11.5972C23.7181 12.1426 24.1544 12.579 24.6998 12.579C25.2453 12.579 25.6816 12.1426 25.6816 11.5972V10.6154H27.3725C27.6997 10.6154 27.9724 10.8881 27.9724 11.2154V23.8149H27.9179Z" fill="white"/>
<path d="M10.7916 14.4333C10.3552 14.4333 9.97342 14.597 9.64616 14.9242C8.99164 15.5788 8.99164 16.5605 9.64616 17.2151C9.97342 17.5423 10.3552 17.7059 10.7916 17.7059C11.2279 17.7059 11.6097 17.5423 11.937 17.2151C12.5915 16.5605 12.5915 15.5788 11.937 14.9242C11.6643 14.597 11.2279 14.4333 10.7916 14.4333Z" fill="white"/>
<path d="M15.2637 14.4333C14.8274 14.4333 14.4456 14.597 14.1183 14.9242C13.4638 15.5788 13.4638 16.5605 14.1183 17.2151C14.4456 17.5423 14.8274 17.7059 15.2637 17.7059C15.7001 17.7059 16.0819 17.5423 16.4091 17.2151C17.0637 16.5605 17.0637 15.5788 16.4091 14.9242C16.0819 14.597 15.7001 14.4333 15.2637 14.4333Z" fill="white"/>
<path d="M19.7364 14.4333C19.3001 14.4333 18.9182 14.597 18.591 14.9242C17.9365 15.5788 17.9365 16.5605 18.591 17.2151C18.9182 17.5423 19.3001 17.7059 19.7364 17.7059C20.1727 17.7059 20.5545 17.5423 20.8818 17.2151C21.5363 16.5605 21.5363 15.5788 20.8818 14.9242C20.5545 14.597 20.1727 14.4333 19.7364 14.4333Z" fill="white"/>
<path d="M24.1544 14.4333C23.718 14.4333 23.3362 14.597 23.009 14.9242C22.3544 15.5788 22.3544 16.5605 23.009 17.2151C23.3362 17.5423 23.718 17.7059 24.1544 17.7059C24.5907 17.7059 24.9725 17.5423 25.2998 17.2151C25.9543 16.5605 25.9543 15.5788 25.2998 14.9242C25.0271 14.597 24.5907 14.4333 24.1544 14.4333Z" fill="white"/>
<path d="M10.7916 18.5786C10.3552 18.5786 9.97342 18.7422 9.64616 19.0694C8.99164 19.724 8.99164 20.7057 9.64616 21.3603C9.97342 21.6875 10.3552 21.8511 10.7916 21.8511C11.2279 21.8511 11.6097 21.6875 11.937 21.3603C12.5915 20.7057 12.5915 19.724 11.937 19.0694C11.6643 18.7422 11.2279 18.5786 10.7916 18.5786Z" fill="white"/>
<path d="M15.2637 18.5786C14.8274 18.5786 14.4456 18.7422 14.1183 19.0694C13.4638 19.724 13.4638 20.7057 14.1183 21.3603C14.4456 21.6875 14.8274 21.8511 15.2637 21.8511C15.7001 21.8511 16.0819 21.6875 16.4091 21.3603C17.0637 20.7057 17.0637 19.724 16.4091 19.0694C16.0819 18.7422 15.7001 18.5786 15.2637 18.5786Z" fill="white"/>
<path d="M19.7364 18.5786C19.3001 18.5786 18.9182 18.7422 18.591 19.0694C17.9365 19.724 17.9365 20.7057 18.591 21.3603C18.9182 21.6875 19.3001 21.8511 19.7364 21.8511C20.1727 21.8511 20.5545 21.6875 20.8818 21.3603C21.5363 20.7057 21.5363 19.724 20.8818 19.0694C20.5545 18.7422 20.1727 18.5786 19.7364 18.5786Z" fill="white"/>
<path d="M24.1544 18.5786C23.718 18.5786 23.3362 18.7422 23.009 19.0694C22.3544 19.724 22.3544 20.7057 23.009 21.3603C23.3362 21.6875 23.718 21.8511 24.1544 21.8511C24.5907 21.8511 24.9725 21.6875 25.2998 21.3603C25.9543 20.7057 25.9543 19.724 25.2998 19.0694C25.0271 18.7422 24.5907 18.5786 24.1544 18.5786Z" fill="white"/>
</svg>
