<svg width="376" height="376" viewBox="0 0 376 376" fill="none" xmlns="http://www.w3.org/2000/svg">
<g opacity="0.5">
<mask id="mask0" mask-type="alpha" maskUnits="userSpaceOnUse" x="0" y="0" width="376" height="376">
<circle cx="188.307" cy="187.837" r="187.408" fill="#AFCB37"/>
</mask>
<g mask="url(#mask0)">
<g opacity="0.5">
<path d="M-142.808 268.416C-142.618 269.174 -142.429 269.742 -142.239 270.499C-103.605 298.341 -67.2439 329.214 -33.155 363.306C14.0013 410.466 55.2868 462.362 90.3226 518.235C91.0801 518.425 91.6483 518.614 92.4058 518.803C57.1806 462.362 15.5164 410.088 -32.2081 362.359C-66.6757 327.888 -103.795 296.447 -142.808 268.416Z" fill="#AFCB37"/>
<path d="M147.706 530.547C148.274 530.547 148.842 530.736 149.41 530.736C108.504 458.196 57.749 391.716 -1.90652 331.866C-48.1159 285.652 -98.4917 244.931 -152.466 209.703C-152.466 210.271 -152.466 210.839 -152.466 211.407C-98.8705 246.257 -48.8735 286.789 -2.85344 332.813C56.4234 392.285 106.799 458.575 147.706 530.547Z" fill="#AFCB37"/>
<path d="M66.4607 263.681C3.39627 200.611 -66.6753 146.632 -142.618 102.501C-142.807 103.07 -142.807 103.448 -142.997 104.017C-67.2435 148.147 2.63875 201.937 65.5138 264.818C159.069 358.381 232.549 467.476 283.872 588.882C295.235 615.776 305.272 642.861 314.363 670.324C314.742 669.945 315.12 669.566 315.499 669.187C306.598 641.914 296.561 614.829 285.198 588.313C233.875 466.529 160.205 357.434 66.4607 263.681Z" fill="#AFCB37"/>
<path d="M-133.149 302.319C-132.77 303.077 -132.581 304.024 -132.202 304.781C-102.848 327.32 -74.819 351.942 -48.3054 378.458C-9.10321 417.664 26.122 460.279 56.6126 505.546C57.3701 505.925 58.1277 506.303 59.0746 506.493C28.0158 460.279 -7.39877 417.096 -47.3585 377.322C-74.4403 350.427 -103.037 325.426 -133.149 302.319Z" fill="#AFCB37"/>
<path d="M-114.968 344.745C-114.4 345.881 -113.831 347.017 -113.263 348.154C-96.2189 362.738 -79.5532 377.89 -63.645 393.989C-35.0482 422.588 -8.91341 452.703 14.9488 484.711C16.0851 485.28 17.032 486.037 18.1683 486.605C-6.26206 453.65 -33.3438 422.399 -62.6981 393.042C-79.3638 375.806 -96.9764 359.897 -114.968 344.745Z" fill="#AFCB37"/>
<path d="M-149.815 237.355C-149.626 237.923 -149.626 238.681 -149.626 239.249C-102.659 271.068 -58.7218 307.433 -18.1939 348.154C35.5908 401.944 81.8002 461.416 120.055 526.001C120.624 526.191 121.381 526.191 121.949 526.38C83.5046 461.226 36.9165 401.187 -17.247 347.018C-58.1537 306.108 -102.469 269.553 -149.815 237.355Z" fill="#AFCB37"/>
<path d="M197.892 532.82C198.46 532.82 199.029 532.82 199.407 532.82C154.524 447.968 97.1407 370.503 28.3947 301.751C-26.5263 246.825 -86.9394 199.285 -152.276 159.511C-152.276 160.08 -152.466 160.648 -152.466 161.027C-87.5075 200.801 -27.2838 248.151 27.4478 302.698C96.0044 371.072 153.009 448.158 197.892 532.82Z" fill="#AFCB37"/>
<path d="M51.3095 278.833C-8.72484 218.793 -75.1982 167.276 -147.164 124.851C-147.353 125.419 -147.353 125.798 -147.353 126.366C-75.577 168.792 -9.48236 220.119 50.3626 279.97C142.024 371.639 213.989 478.272 264.176 597.215C276.486 626.572 287.47 656.119 296.939 686.234C297.318 685.855 297.697 685.476 298.075 685.287C288.606 655.361 277.811 625.815 265.501 596.647C215.126 477.514 142.971 370.692 51.3095 278.833Z" fill="#AFCB37"/>
<path d="M173.462 532.631C174.03 532.631 174.598 532.631 175.166 532.631C131.987 453.651 77.8234 381.3 13.4333 316.714C-37.3213 265.955 -92.9998 221.635 -153.034 183.944C-153.034 184.513 -153.034 185.081 -153.034 185.649C-93.3786 223.15 -38.0788 267.281 12.297 317.661C76.4977 382.057 130.472 454.029 173.462 532.631Z" fill="#AFCB37"/>
<path d="M-150.951 147.579C-150.951 148.147 -151.14 148.526 -151.14 149.094C-83.7199 189.815 -21.4129 238.681 35.0231 295.122C105.474 365.579 163.993 445.127 209.634 532.441C210.202 532.441 210.581 532.441 211.149 532.441C165.318 444.938 106.61 365.011 35.9701 294.364C-20.6554 237.355 -83.1517 188.3 -150.951 147.579Z" fill="#AFCB37"/>
<path d="M-138.83 284.705C-138.641 285.462 -138.451 286.22 -138.262 286.978C-103.984 312.357 -71.4098 340.389 -40.9192 371.071C2.63884 414.634 40.8941 461.984 73.8468 512.743C74.6043 512.932 75.3618 513.311 76.1193 513.501C42.788 461.984 3.96451 414.065 -39.9723 369.935C-70.8417 338.873 -103.984 310.463 -138.83 284.705Z" fill="#AFCB37"/>
<path d="M134.26 528.653C134.828 528.842 135.396 528.842 136.154 528.842C96.3835 459.9 47.7121 396.451 -9.29205 339.442C-53.0395 295.69 -100.575 256.863 -151.329 223.15C-151.329 223.718 -151.14 224.286 -151.14 225.044C-100.764 258.568 -53.6076 297.016 -10.239 340.389C46.1971 397.209 94.6791 460.279 134.26 528.653Z" fill="#AFCB37"/>
<path d="M58.8852 271.257C-2.66423 209.702 -70.842 157.049 -144.891 113.676C-144.891 114.244 -145.08 114.623 -145.08 115.191C-71.4102 158.564 -3.42175 211.028 57.9383 272.394C150.546 365.01 223.269 472.969 274.024 593.049C285.955 621.08 296.371 649.679 305.651 678.468C306.03 678.089 306.408 677.711 306.787 677.332C297.507 648.732 287.091 620.322 275.35 592.48C224.406 472.022 151.683 364.063 58.8852 271.257Z" fill="#AFCB37"/>
<path d="M-125.384 322.017C-125.006 322.964 -124.627 323.911 -124.248 324.669C-100.575 343.798 -77.6598 364.253 -55.8808 386.034C-21.4131 420.505 9.64563 457.438 37.4849 496.644C38.4318 497.023 39.1893 497.591 40.1363 497.97C11.9182 457.817 -19.7087 420.126 -54.7445 385.087C-77.4704 362.738 -100.954 341.715 -125.384 322.017Z" fill="#AFCB37"/>
<path d="M-146.974 252.507C-146.784 253.265 -146.595 253.833 -146.405 254.59C-103.416 284.516 -63.077 318.418 -25.5793 355.92C24.986 406.49 68.9228 462.363 105.663 522.781C106.231 522.971 106.989 523.16 107.557 523.35C70.6272 462.363 26.3116 406.111 -24.6323 354.973C-62.5089 316.903 -103.416 282.622 -146.974 252.507Z" fill="#AFCB37"/>
<path d="M185.772 532.82C186.34 532.82 186.908 532.82 187.476 532.82C143.35 450.809 87.6713 375.807 21.0086 309.138C-32.0186 256.106 -90.1591 210.081 -153.034 171.254C-153.034 171.822 -153.034 172.391 -153.034 172.959C-90.5379 211.597 -32.5867 257.431 20.0617 310.274C86.1562 376.564 141.835 451.188 185.772 532.82Z" fill="#AFCB37"/>
<path d="M43.7345 286.41C-14.5954 228.074 -79.175 177.694 -149.057 136.026C-149.057 136.594 -149.247 136.973 -149.247 137.541C-79.5537 179.209 -15.353 229.211 42.7875 287.357C115.132 359.708 174.977 441.529 221.565 531.494C218.156 531.683 214.747 532.062 211.338 532.251C214.368 537.933 217.209 543.615 220.05 549.487C220.807 543.805 221.375 538.123 221.754 532.441C233.307 554.979 244.101 577.897 254.139 601.383C267.017 631.876 278.19 662.748 288.038 693.999C288.417 693.621 288.796 693.431 289.174 693.052C279.516 661.991 268.342 631.118 255.464 601.004C205.657 483.007 134.449 377.322 43.7345 286.41Z" fill="#AFCB37"/>
<path d="M160.773 531.872C161.341 531.872 161.909 531.872 162.478 532.062C120.435 456.112 67.9756 386.602 5.85806 324.479C-42.6239 275.992 -95.6511 233.377 -152.845 196.823C-152.845 197.391 -152.845 197.959 -152.845 198.528C-96.2193 234.703 -43.3815 277.129 4.72177 325.426C66.4606 387.17 118.73 456.491 160.773 531.872Z" fill="#AFCB37"/>
<path d="M119.677 210.46C48.848 139.624 -30.314 79.395 -116.673 30.7191C-116.862 31.0979 -117.051 31.6661 -117.241 32.0449C-31.2609 80.7208 47.901 140.761 118.73 211.597C219.292 312.168 298.076 429.218 353.186 559.525C360.004 575.624 366.443 591.723 372.314 608.012C372.692 607.633 373.071 607.254 373.45 606.686C367.579 590.587 361.329 574.677 354.512 558.957C299.212 428.46 220.239 311.221 119.677 210.46Z" fill="#AFCB37"/>
<path d="M149.978 180.156C76.3085 106.479 -5.88366 43.9768 -95.4617 -6.59314C-95.6511 -6.21434 -96.0299 -5.83554 -96.2192 -5.45674C-6.83057 45.1132 75.3615 107.426 149.031 181.103C253.381 285.652 335.384 407.247 392.767 542.668C396.365 551.002 399.774 559.335 402.994 567.858C403.373 567.479 403.562 566.911 403.941 566.533C400.721 558.388 397.312 550.244 393.903 542.1C336.71 406.489 254.518 284.705 149.978 180.156Z" fill="#AFCB37"/>
<path d="M-29.3666 -80.0804C-29.7454 -79.7016 -30.1242 -79.5122 -30.5029 -79.1334C59.6433 -26.2907 142.593 37.9161 217.399 112.919C320.423 215.953 403.373 334.517 464.354 465.582C464.544 465.014 464.922 464.446 465.112 463.878C404.131 333.002 321.37 214.816 218.346 111.782C143.54 36.9691 60.5902 -27.2377 -29.3666 -80.0804Z" fill="#AFCB37"/>
<path d="M104.337 225.612C35.212 156.481 -41.6774 97.9559 -125.574 50.4164C-125.763 50.7952 -125.953 51.3634 -126.142 51.7422C-42.4349 99.2817 34.4545 157.806 103.39 226.748C201.869 325.236 279.326 440.013 333.3 567.858C341.633 587.367 349.209 607.064 356.216 626.762C356.595 626.383 356.973 626.004 357.352 625.625C350.345 606.117 342.77 586.609 334.626 567.29C280.463 439.255 203.005 324.289 104.337 225.612Z" fill="#AFCB37"/>
<path d="M74.0361 256.105C9.64601 191.709 -61.9407 136.783 -139.777 91.7053C-139.966 92.0841 -139.966 92.6523 -140.156 93.0311C-62.5088 137.919 8.88847 192.656 73.0892 257.052C167.591 351.563 242.019 461.794 293.91 584.525C304.704 610.094 314.363 635.853 323.074 661.801C323.453 661.422 323.832 661.043 324.211 660.664C315.689 634.716 306.03 609.147 295.235 583.768C243.155 461.036 168.728 350.805 74.0361 256.105Z" fill="#AFCB37"/>
<path d="M89.1862 240.953C22.3341 174.095 -52.2828 117.085 -133.339 70.8715C-133.528 71.2503 -133.717 71.8185 -133.907 72.1973C-52.8509 118.411 21.5765 175.231 88.2393 241.9C184.824 338.494 260.578 450.998 313.605 576.192C323.263 598.731 331.975 621.648 339.74 644.755C340.118 644.376 340.497 643.997 340.876 643.618C332.922 620.701 324.4 597.973 314.93 575.624C261.903 450.241 185.961 337.547 89.1862 240.953Z" fill="#AFCB37"/>
<path d="M134.827 195.308C62.2939 122.768 -18.5726 61.4017 -106.636 11.7788C-106.825 12.1576 -107.014 12.5364 -107.393 13.1046C-19.3301 62.7275 61.347 124.093 133.691 196.444C236.147 298.91 316.635 418.232 372.882 551.191C378.184 563.502 383.108 576.003 387.843 588.503C388.222 588.124 388.6 587.556 388.79 587.177C384.055 574.866 379.321 562.745 374.018 550.623C317.961 417.475 237.473 297.963 134.827 195.308Z" fill="#AFCB37"/>
<path d="M-69.327 -41.2538C-69.7058 -40.875 -69.8952 -40.4962 -70.2739 -40.1174C20.6298 11.7783 104.337 75.6063 179.333 150.798C287.281 258.757 372.314 384.518 431.59 524.485C431.969 523.917 432.158 523.538 432.537 522.97C373.071 383.193 288.228 257.62 180.279 149.662C105.284 74.6593 21.5767 10.8313 -69.327 -41.2538Z" fill="#AFCB37"/>
<path d="M-46.4116 -65.118C-46.7903 -64.7392 -47.1691 -64.3604 -47.5479 -64.171C43.3559 -11.5177 126.874 52.689 202.059 127.881C307.355 233.188 391.063 354.783 451.665 489.636C451.855 489.068 452.233 488.499 452.612 488.121C392.199 353.457 308.302 232.051 203.195 126.934C127.821 51.742 44.3028 -12.4647 -46.4116 -65.118Z" fill="#AFCB37"/>
<path d="M165.13 165.004C90.5128 90.3801 7.56319 27.1204 -82.9618 -24.2072C-83.3405 -23.8284 -83.5299 -23.4495 -83.9087 -23.0707C6.61628 28.2568 89.5659 91.5165 164.183 165.951C270.616 272.394 354.134 396.262 412.464 534.335C414.168 538.502 415.872 542.479 417.577 546.646C417.956 546.078 418.145 545.699 418.524 545.32C417.009 541.532 415.304 537.744 413.789 533.956C355.27 395.694 271.752 271.447 165.13 165.004Z" fill="#AFCB37"/>
<path d="M-62.1302 -49.3977C-62.509 -49.0189 -62.6984 -48.6401 -63.0771 -48.2613C28.016 4.01321 111.723 68.0306 186.908 143.223C294.099 250.423 378.563 374.859 438.408 513.122C438.787 512.553 438.977 512.175 439.355 511.606C379.51 373.533 295.046 249.097 187.855 142.086C112.67 66.8942 28.9629 2.87682 -62.1302 -49.3977Z" fill="#AFCB37"/>
<path d="M111.912 218.036C41.8405 147.958 -36.1852 88.486 -121.407 40.3783C-121.597 40.7571 -121.786 41.3253 -121.976 41.7041C-36.9427 89.8118 40.8936 149.094 110.776 218.983C210.391 318.607 288.417 434.331 342.959 563.502C350.534 581.306 357.542 599.299 363.981 617.292C364.359 616.913 364.738 616.534 365.117 616.156C358.678 598.352 351.671 580.548 344.285 562.934C289.932 433.763 211.717 317.85 111.912 218.036Z" fill="#AFCB37"/>
<path d="M142.403 187.731C69.3011 114.623 -12.3228 52.6888 -101.143 2.49768C-101.333 2.87648 -101.711 3.25528 -101.901 3.63408C-13.0804 53.6358 68.3542 115.57 141.456 188.678C244.859 292.091 326.104 412.739 382.919 546.835C387.275 557.252 391.441 567.669 395.608 578.086C395.986 577.707 396.365 577.139 396.555 576.76C392.577 566.532 388.411 556.304 384.245 546.266C327.24 411.981 245.995 291.333 142.403 187.731Z" fill="#AFCB37"/>
<path d="M-38.0786 -72.694C-38.4573 -72.3152 -38.8361 -72.1258 -39.2148 -71.747C51.3101 -18.9042 134.639 45.3025 209.634 120.494C313.795 224.665 397.123 344.745 457.915 477.893C458.104 477.325 458.483 476.757 458.672 476.378C397.881 343.608 314.552 223.718 210.581 119.547C135.585 44.3555 52.257 -19.8512 -38.0786 -72.694Z" fill="#AFCB37"/>
<path d="M96.7619 233.377C28.7735 165.382 -46.9796 107.615 -129.551 60.6439C-129.74 61.0227 -129.929 61.5909 -130.119 61.9697C-47.7372 108.752 27.8266 166.519 95.815 234.514C193.347 332.055 270.047 445.695 323.453 572.214C332.354 593.238 340.498 614.64 348.073 636.042C348.452 635.664 348.83 635.285 349.209 634.906C341.823 613.693 333.68 592.48 324.779 571.646C271.183 444.748 194.483 330.918 96.7619 233.377Z" fill="#AFCB37"/>
<path d="M81.6111 248.53C15.8953 182.808 -57.2064 126.745 -136.747 81.0996C-136.937 81.4784 -137.126 82.0466 -137.126 82.4254C-57.7746 127.882 15.1378 183.755 80.6642 249.287C176.303 344.934 251.298 456.112 303.757 580.17C313.984 604.224 323.264 628.656 331.407 653.278C331.786 652.9 332.165 652.521 332.543 652.142C324.21 627.709 315.12 603.466 305.083 579.602C252.434 455.734 177.439 344.177 81.6111 248.53Z" fill="#AFCB37"/>
<path d="M127.252 202.884C55.4763 131.101 -24.4433 70.3034 -111.749 21.0593C-111.938 21.4381 -112.128 21.8169 -112.317 22.3851C-25.2008 71.4398 54.7187 132.237 126.305 203.831C227.815 305.349 307.545 423.535 363.223 555.169C369.284 569.374 374.965 583.768 380.268 598.162C380.646 597.784 381.025 597.215 381.215 596.837C375.912 582.632 370.23 568.616 364.36 554.6C308.681 422.967 228.762 304.592 127.252 202.884Z" fill="#AFCB37"/>
<path d="M172.704 157.428C97.8978 82.4254 14.38 18.7868 -76.3343 -32.7301C-76.7131 -32.3513 -76.9025 -31.9725 -77.2812 -31.5937C13.4331 20.1126 96.9509 83.5618 171.757 158.375C279.137 265.765 363.412 390.959 422.5 530.168C423.257 532.062 424.015 533.767 424.772 535.661C425.151 535.092 425.341 534.714 425.719 534.145C425.151 532.63 424.394 531.115 423.826 529.6C364.738 390.201 280.273 265.007 172.704 157.428Z" fill="#AFCB37"/>
<path d="M-54.3651 -57.3528C-54.7439 -56.974 -55.1226 -56.5952 -55.312 -56.4058C35.7811 -3.94186 119.299 60.2649 194.673 135.457C300.917 241.711 385.192 364.821 445.227 501.379C445.605 500.81 445.795 500.432 446.173 499.863C385.95 363.306 301.864 240.574 195.62 134.32C120.246 59.3179 36.5386 -4.88886 -54.3651 -57.3528Z" fill="#AFCB37"/>
<path d="M157.553 172.58C83.5048 98.3346 0.74453 35.4537 -89.4016 -15.495C-89.591 -15.1162 -89.9698 -14.7374 -90.1592 -14.3586C-0.202385 36.5901 82.5579 99.4711 156.607 173.527C262.093 279.023 344.853 401.754 402.615 538.501C405.266 544.751 407.917 551.002 410.379 557.441C410.758 557.062 410.948 556.494 411.326 555.926C408.864 549.865 406.402 543.994 403.94 537.933C345.989 400.996 263.04 278.076 157.553 172.58Z" fill="#AFCB37"/>
<path d="M41.8412 -124.778C41.2731 -124.589 40.8943 -124.4 40.3262 -124.021C123.276 -71.9357 200.165 -10.57 270.426 59.6976C363.792 153.072 441.439 258.189 502.42 373.534C502.609 372.966 502.799 372.208 502.988 371.64C442.007 256.674 364.36 151.746 271.373 58.5612C201.301 -11.3276 124.602 -72.6933 41.8412 -124.778Z" fill="#AFCB37"/>
<path d="M92.5955 -143.151C92.0273 -142.961 91.4592 -142.772 90.7017 -142.583C165.887 -92.7704 235.958 -35.382 300.727 29.2035C386.896 115.381 459.998 211.217 519.654 315.577C519.843 314.819 520.032 314.251 520.222 313.494C460.756 209.513 387.654 113.866 301.863 28.0671C237.473 -36.1396 167.402 -93.3386 92.5955 -143.151Z" fill="#AFCB37"/>
<path d="M528.744 150.23C528.554 149.284 528.554 148.147 528.365 147.2C481.208 80.9099 428.371 18.4078 370.23 -39.9275C330.649 -79.5122 289.174 -116.445 245.995 -150.916C245.048 -151.106 244.101 -151.295 243.154 -151.484C287.091 -116.635 329.134 -79.1334 369.283 -39.1699C427.992 19.923 481.398 82.9933 528.744 150.23Z" fill="#AFCB37"/>
<path d="M19.3042 -113.415C18.9254 -113.225 18.3573 -112.846 17.9785 -112.657C103.769 -60.0038 183.12 2.68779 255.275 74.8493C351.671 171.254 431.212 280.728 492.572 400.997C492.761 400.429 492.951 399.86 493.329 399.103C431.969 279.212 352.428 170.118 256.222 73.9023C184.257 1.74079 104.905 -60.7614 19.3042 -113.415Z" fill="#AFCB37"/>
<path d="M-20.4662 -87.2777C-20.845 -86.8989 -21.2238 -86.7095 -21.6025 -86.3307C67.9755 -33.2986 150.357 30.7188 224.974 105.153C326.862 207.051 409.243 323.911 470.224 453.082C470.414 452.514 470.793 451.945 470.982 451.377C409.811 322.585 327.619 205.914 225.921 104.206C151.493 29.7718 68.9224 -34.2456 -20.4662 -87.2777Z" fill="#AFCB37"/>
<path d="M-1.33839 -100.914C-1.71715 -100.535 -2.2853 -100.346 -2.66406 -99.9672C85.2095 -47.1245 166.455 16.514 240.125 90.0014C339.361 189.247 420.417 302.509 481.777 427.513C481.966 426.945 482.345 426.376 482.535 425.808C421.175 301.183 340.308 188.3 241.072 89.0544C167.591 15.567 86.5352 -47.8821 -1.33839 -100.914Z" fill="#AFCB37"/>
<path d="M66.2704 -134.628C65.7022 -134.438 65.1341 -134.249 64.5659 -134.06C143.917 -82.9216 217.966 -23.2604 285.576 44.5449C375.532 134.51 451.096 235.082 511.509 345.123C511.699 344.555 511.888 343.798 512.077 343.229C451.664 233.567 376.29 133.184 286.522 43.4085C219.102 -24.018 145.432 -83.6792 66.2704 -134.628Z" fill="#AFCB37"/>
<path d="M151.872 -154.515C151.114 -154.515 150.357 -154.325 149.789 -154.325C214.179 -108.869 274.592 -57.731 331.217 -1.10031C407.917 75.6069 474.58 159.701 531.016 250.613C531.016 249.855 531.205 249.098 531.205 248.151C474.959 157.807 408.485 74.0917 332.164 -2.23671C276.107 -58.2992 215.883 -109.059 151.872 -154.515Z" fill="#AFCB37"/>
<path d="M532.342 193.414C532.342 192.467 532.342 191.52 532.153 190.762C480.451 113.866 421.364 41.7042 354.891 -24.7754C307.545 -72.1255 257.358 -115.688 204.71 -155.651C203.952 -155.651 203.006 -155.651 202.248 -155.841C255.465 -115.688 306.219 -71.7467 353.944 -23.8284C420.985 43.03 480.451 115.76 532.342 193.414Z" fill="#AFCB37"/>
<path d="M121.003 -149.78C120.435 -149.59 119.677 -149.59 119.109 -149.401C189.37 -101.483 255.086 -46.746 316.067 14.2409C397.88 96.0619 468.331 186.595 526.661 284.894C526.85 284.137 526.85 283.379 527.039 282.811C468.899 185.08 398.638 94.9255 317.203 13.2939C256.222 -47.5036 190.885 -102.051 121.003 -149.78Z" fill="#AFCB37"/>
<path d="M168.538 -155.841C167.781 -155.841 167.023 -155.841 166.266 -155.651C227.247 -111.71 284.819 -62.6555 338.793 -8.67636C412.463 65.0004 477.232 145.685 532.342 232.43C532.342 231.673 532.342 230.726 532.532 229.968C477.611 143.791 413.221 63.6746 339.93 -9.62337C286.334 -63.2237 229.141 -111.9 168.538 -155.841Z" fill="#AFCB37"/>
<path d="M30.478 -119.287C29.9098 -119.097 29.531 -118.719 28.9629 -118.529C113.428 -66.0652 191.643 -3.94189 262.851 67.2727C357.731 162.162 436.515 269.552 497.496 387.359C497.685 386.791 497.875 386.223 498.064 385.465C436.893 268.037 358.489 160.836 263.608 66.1363C192.779 -4.88889 114.564 -66.8228 30.478 -119.287Z" fill="#AFCB37"/>
<path d="M79.1493 -139.174C78.5811 -138.984 78.013 -138.795 77.4448 -138.605C154.713 -88.0354 226.868 -29.3213 293.152 36.9689C381.215 125.04 455.642 223.339 515.677 330.54C515.866 329.971 516.055 329.214 516.245 328.646C456.21 221.824 381.972 123.714 294.288 35.8325C228.193 -30.2683 156.228 -88.6036 79.1493 -139.174Z" fill="#AFCB37"/>
<path d="M531.017 172.39C531.017 171.443 530.827 170.496 530.827 169.549C481.209 97.7666 425.152 30.1507 362.466 -32.3514C318.908 -76.1029 272.888 -116.635 224.595 -153.947C223.648 -154.136 222.891 -154.136 221.944 -154.136C270.805 -116.445 317.393 -75.5347 361.519 -31.215C424.583 31.6659 481.209 99.8501 531.017 172.39Z" fill="#AFCB37"/>
<path d="M8.88817 -107.354C8.50941 -107.165 7.94127 -106.786 7.5625 -106.597C94.4892 -53.7538 174.787 9.31655 247.7 82.2357C345.611 180.156 425.909 291.523 487.269 414.065C487.458 413.497 487.837 412.929 488.027 412.361C426.667 290.008 346.558 179.019 248.836 81.2887C175.924 8.55895 95.6255 -54.5114 8.88817 -107.354Z" fill="#AFCB37"/>
<path d="M-10.9971 -94.2853C-11.3758 -93.9065 -11.7546 -93.7171 -12.3228 -93.3383C76.4977 -40.3062 158.311 23.5217 232.549 97.5773C333.111 198.149 414.925 313.304 476.095 440.392C476.285 439.824 476.663 439.256 476.853 438.687C415.682 311.979 334.058 197.013 233.496 96.6303C159.447 22.5747 77.634 -41.2532 -10.9971 -94.2853Z" fill="#AFCB37"/>
<path d="M53.7718 -129.893C53.2037 -129.703 52.6355 -129.514 52.0674 -129.324C133.313 -77.6181 208.876 -17.0099 277.812 51.9318C369.473 143.602 446.173 246.635 506.965 359.329C507.154 358.761 507.344 358.003 507.533 357.435C446.93 245.12 370.23 142.276 278.759 50.7954C210.202 -17.7675 134.828 -78.1863 53.7718 -129.893Z" fill="#AFCB37"/>
<path d="M136.153 -152.431C135.396 -152.242 134.827 -152.242 134.07 -152.053C201.49 -105.271 264.744 -52.2386 323.642 6.66493C402.993 85.8343 471.739 173.337 529.122 268.038C529.312 267.28 529.312 266.522 529.501 265.765C472.307 171.633 403.751 84.5085 324.778 5.33913C266.07 -52.9962 203.005 -105.839 136.153 -152.431Z" fill="#AFCB37"/>
<path d="M347.315 -17.1993C296.75 -67.9586 242.965 -114.172 186.151 -156.219C185.393 -156.219 184.635 -156.219 183.878 -156.219C241.261 -113.983 295.424 -67.201 346.558 -16.2523C417.008 54.2046 479.315 130.912 532.91 213.301C532.91 212.354 532.91 211.596 532.91 210.649C479.315 129.018 417.387 52.6894 347.315 -17.1993Z" fill="#AFCB37"/>
<path d="M106.61 -146.749C106.041 -146.56 105.284 -146.37 104.716 -146.37C177.439 -97.3156 245.617 -41.253 308.492 21.6279C392.578 105.722 464.543 199.096 523.441 300.425C523.631 299.668 523.82 299.1 523.82 298.342C464.922 197.392 393.146 104.207 309.439 20.4915C246.753 -42.0106 178.954 -97.8838 106.61 -146.749Z" fill="#AFCB37"/>
<path d="M512.078 73.9023C511.699 72.5764 511.131 71.2507 510.753 69.9249C474.391 23.7112 434.999 -20.6086 392.767 -62.8448C370.609 -85.0047 347.883 -106.407 324.589 -127.052C323.264 -127.62 321.938 -127.999 320.612 -128.567C345.043 -107.165 368.716 -85.0047 391.82 -61.8978C434.999 -18.7145 474.959 26.5522 512.078 73.9023Z" fill="#AFCB37"/>
<path d="M525.145 126.745C524.956 125.609 524.767 124.662 524.577 123.525C480.451 63.1066 431.401 6.09706 377.806 -47.5033C342.959 -82.3529 306.787 -115.119 269.289 -145.802C268.721 -145.991 267.964 -146.37 267.206 -146.37C266.827 -146.56 266.259 -146.56 265.88 -146.749C304.325 -115.309 341.255 -81.9741 376.669 -46.5563C431.022 7.61226 480.451 65.5688 525.145 126.745Z" fill="#AFCB37"/>
<path d="M500.526 42.272C499.768 40.7568 499.2 39.0522 498.442 37.537C467.762 0.225136 434.999 -35.761 400.342 -70.4212C386.328 -84.4369 371.935 -98.2631 357.542 -111.711C356.027 -112.468 354.322 -113.415 352.807 -114.173C368.526 -99.5889 384.245 -84.8157 399.395 -69.4742C435.189 -33.6776 468.899 3.63435 500.526 42.272Z" fill="#AFCB37"/>
<path d="M519.843 101.555C519.654 100.419 519.275 99.2821 519.085 98.1457C478.368 44.356 433.674 -6.78215 385.381 -55.0792C356.784 -83.6787 327.241 -110.952 296.561 -136.9C295.424 -137.279 294.288 -137.658 293.152 -137.847C324.589 -111.331 354.891 -83.2999 384.245 -53.9428C433.295 -5.26694 478.558 46.8182 519.843 101.555Z" fill="#AFCB37"/>
</g>
</g>
</g>
</svg>
