<svg width="22" height="22" viewBox="0 0 22 22" fill="none" xmlns="http://www.w3.org/2000/svg">
<path d="M16.188 14.1412L13.0077 10.9609L16.188 7.78057C16.7769 7.19162 16.7769 6.2493 16.1879 5.66036C15.599 5.07142 14.6567 5.07142 14.0678 5.66037L10.8875 8.84066L7.70716 5.66037C7.11822 5.07143 6.1759 5.07142 5.58695 5.66036C4.99801 6.2493 4.99802 7.19163 5.58697 7.78057L8.76726 10.9609L5.58696 14.1412C4.99802 14.7301 4.99801 15.6724 5.58695 16.2614C6.1759 16.8503 7.11822 16.8503 7.70716 16.2614L10.8875 13.0811L14.0678 16.2614C14.6567 16.8503 15.599 16.8503 16.1879 16.2614C16.7769 15.6724 16.7769 14.7301 16.188 14.1412Z" fill="white"/>
</svg>
