<svg width="41" height="41" viewBox="0 0 41 41" fill="none" xmlns="http://www.w3.org/2000/svg">
<circle cx="20.2504" cy="20.7806" r="20" fill="#00567A"/>
<path d="M33.3864 24.8914H31.3441V13.8419C31.3441 12.5327 30.2444 11.433 28.9352 11.433H11.654C10.3448 11.433 9.24508 12.5327 9.24508 13.8419V24.8914H7.25511C6.73144 24.8914 6.3125 25.3104 6.3125 25.834V27.3527C6.3125 28.8714 7.56932 30.1282 9.08797 30.1282H31.3965C32.9151 30.1282 34.1719 28.8714 34.1719 27.3527V25.834C34.2767 25.3104 33.8577 24.8914 33.3864 24.8914ZM11.1303 13.8419C11.1303 13.5277 11.3921 13.2659 11.7063 13.2659H28.9876C29.3018 13.2659 29.5636 13.5277 29.5636 13.8419V24.8914H11.1303V13.8419ZM32.4438 27.3527C32.4438 27.8764 32.0249 28.2953 31.5012 28.2953H9.19271C8.66903 28.2953 8.2501 27.8764 8.2501 27.3527V26.7243H10.083C10.1353 26.7243 10.1877 26.7243 10.2401 26.7243C10.2924 26.7243 10.3448 26.7243 10.3972 26.7243H30.2968C30.3491 26.7243 30.4015 26.7243 30.4539 26.7243C30.5062 26.7243 30.5586 26.7243 30.611 26.7243H32.4438V27.3527Z" fill="white"/>
<path d="M21.4991 15.0988H19.1426C18.6189 15.0988 18.2 15.5177 18.2 16.0414C18.2 16.5651 18.6189 16.984 19.1426 16.984H21.4991C22.0228 16.984 22.4417 16.5651 22.4417 16.0414C22.4417 15.5177 22.0228 15.0988 21.4991 15.0988Z" fill="white"/>
</svg>
