<svg width="57" height="57" viewBox="0 0 57 57" fill="none" xmlns="http://www.w3.org/2000/svg">
<circle cx="28.5" cy="28.5" r="28.5" fill="#00A03B"/>
<path d="M37.1487 17.234H35.3037V15.6718C35.3037 15.0023 34.6118 14.5559 33.9199 14.5559H32.0748C31.3829 13.2169 29.9991 12.3242 28.3847 12.3242C26.7703 12.3242 25.6171 13.2169 24.9252 14.5559H22.8495C22.6189 14.5559 22.3882 14.5559 21.927 14.7791C21.6963 15.0023 21.6963 15.4486 21.6963 15.6718V17.0108H19.8513C18.6981 17.0108 17.5449 17.9035 17.5449 19.2425V40.4438C17.5449 41.5597 18.4675 42.6755 19.8513 42.6755H37.1487C38.3019 42.6755 39.4551 41.7829 39.4551 40.4438V19.2425C39.2244 18.1267 38.3019 17.234 37.1487 17.234ZM24.2333 17.0108H27.0009V16.1181C27.0009 15.4486 27.6928 14.7791 28.3847 14.7791C29.0766 14.7791 29.7685 15.4486 29.7685 16.1181V17.0108H32.5361V19.2425H24.2333V17.0108ZM36.6875 40.2207H20.0819V19.6889H21.4657V20.5816C21.6963 21.2511 22.1576 21.9206 22.8495 21.9206H33.6892C34.3811 21.9206 35.073 21.2511 35.073 20.5816V19.6889H36.4568V40.2207H36.6875Z" fill="white"/>
<path d="M32.9978 24.5985H23.7725C23.0806 24.5985 22.3887 25.268 22.3887 25.9375C22.3887 26.6071 23.0806 27.2766 23.7725 27.2766H32.9978C33.6897 27.2766 34.3816 26.6071 34.3816 25.9375C34.3816 25.268 33.6897 24.5985 32.9978 24.5985Z" fill="white"/>
<path d="M32.9978 30.1782H23.7725C23.0806 30.1782 22.3887 30.6245 22.3887 31.294C22.3887 31.9635 23.0806 32.6331 23.7725 32.6331H32.9978C33.6897 32.6331 34.3816 31.9635 34.3816 31.294C34.3816 30.6245 33.6897 30.1782 32.9978 30.1782Z" fill="white"/>
</svg>
