<svg width="40" height="41" viewBox="0 0 40 41" fill="none" xmlns="http://www.w3.org/2000/svg">
<circle cx="20" cy="20.5" r="20" fill="#00567A"/>
<path d="M16.4128 12.8282C15.9415 12.8282 15.6797 12.8806 15.1036 13.1424C13.6897 13.7708 12.6947 14.9229 12.2758 16.3368C11.7521 18.065 12.1187 20.1073 13.3231 21.9925C14.5276 23.9301 15.6273 24.9251 16.727 25.8677C19.1883 27.9624 19.9738 28.0148 20.0262 28.0148H20.0785C20.2356 28.0148 21.0212 27.91 23.3777 25.8677C24.4774 24.9251 25.5247 23.9301 26.7816 21.9925C27.986 20.1073 28.3526 18.065 27.8289 16.3368C27.41 14.8705 26.3626 13.7708 25.0011 13.1424C24.425 12.8806 24.1108 12.8282 23.6919 12.8282C22.6969 12.8282 21.859 13.6137 21.3354 14.1374C21.1259 14.2945 20.9688 14.4516 20.8117 14.6087C20.3927 14.9229 19.8167 14.9229 19.3978 14.6087C19.2407 14.504 19.0836 14.3469 18.8741 14.1374C18.1933 13.6137 17.4602 12.8282 16.4128 12.8282ZM20.0262 29.9524H19.9738C19.3454 29.9524 18.1933 29.6905 15.4702 27.334C14.3181 26.339 13.1137 25.1869 11.7521 23.0399C10.2858 20.6833 9.81453 18.1173 10.4953 15.8655C11.0714 13.9279 12.4329 12.3569 14.3181 11.519C14.9989 11.2572 15.5749 11.0477 16.4128 11.0477C18.1933 11.0477 19.3978 12.1998 20.0262 12.8282C20.7069 12.1998 21.9114 11.0477 23.6395 11.0477C24.425 11.0477 25.0011 11.2048 25.6819 11.519C27.5671 12.3569 28.9286 13.9279 29.5047 15.8655C30.1854 18.1173 29.7141 20.6833 28.2479 23.0399C26.8863 25.1869 25.6819 26.339 24.5298 27.334C22.4351 29.1145 21.0735 29.9524 20.0262 29.9524Z" fill="white"/>
</svg>
