<svg width="57" height="57" viewBox="0 0 57 57" fill="none" xmlns="http://www.w3.org/2000/svg">
<circle cx="28.5" cy="28.5" r="28.5" fill="#00A03B"/>
<path d="M36.8478 22.9412L36.587 20.3361C36.587 15.6471 32.9348 12 28.5 12C24.0652 12 20.1522 15.6471 20.1522 20.3361V23.2017H19.8913C18.0652 22.9412 16.5 24.5042 16.5 26.5882V39.6134C16.5 41.437 18.0652 43 19.8913 43H36.8478C38.6739 43 40.2391 41.437 40.2391 39.6134V26.5882C40.5 24.5042 38.9348 22.9412 36.8478 22.9412ZM23.2826 20.3361C23.2826 17.4706 25.6304 15.1261 28.5 15.1261C31.3696 15.1261 33.7174 17.4706 33.7174 20.3361V23.2017H23.2826V20.3361V20.3361ZM37.3696 39.6134C37.3696 39.874 37.1087 40.1345 36.8478 40.1345H19.8913C19.6304 40.1345 19.3696 39.874 19.3696 39.6134V26.5882C19.3696 26.3277 19.6304 26.0672 19.8913 26.0672H36.8478C37.1087 26.0672 37.3696 26.0672 37.3696 26.5882V39.6134Z" fill="white"/>
<path d="M28.4998 29.1934C27.7172 29.1934 26.9346 29.7144 26.9346 30.4959V35.4455C26.9346 36.227 27.7172 37.0085 28.4998 37.0085C29.2824 37.0085 30.065 36.227 30.065 35.4455V30.4959C30.065 29.7144 29.2824 29.1934 28.4998 29.1934Z" fill="white"/>
</svg>
