<svg width="36" height="36" viewBox="0 0 36 36" fill="none" xmlns="http://www.w3.org/2000/svg">
<circle cx="18.0845" cy="18.1727" r="17.5" fill="#3C7E79"/>
<path d="M14.0549 10.3858C12.9658 10.3858 12.0401 10.8214 11.1689 11.8016C10.3521 12.6729 9.97088 13.6531 9.97088 14.6877C10.0798 16.4847 11.4956 17.7915 11.4956 17.7915L14.545 20.5687L20.1538 14.4154L17.1588 11.6927C17.1588 11.6927 15.7975 10.3858 14.0549 10.3858ZM16.0153 21.93L19.0102 24.6527C19.0102 24.6527 20.426 25.9596 22.1141 25.9596C23.2032 25.9596 24.1289 25.524 25.0002 24.5438C25.817 23.6181 26.1982 22.6924 26.1982 21.6578C26.0892 19.8608 24.6734 18.5539 24.6734 18.5539L21.624 15.7768L16.0153 21.93ZM22.1141 27.92C19.6637 27.92 17.8122 26.2864 17.6489 26.0685L10.1887 19.2618C9.97088 19.0984 8.11945 17.3559 8.01054 14.7966C7.95609 13.2174 8.50063 11.8016 9.69861 10.4947C10.9511 9.13338 12.4213 8.42548 14.0549 8.42548C16.5054 8.42548 18.3568 10.0591 18.5201 10.2769L25.9803 17.0836C26.1981 17.247 28.0496 18.9895 28.1585 21.5489C28.2129 23.128 27.6684 24.5438 26.4704 25.8507C25.218 27.2665 23.7477 27.92 22.1141 27.92Z" fill="white"/>
</svg>
