<svg width="46" height="46" viewBox="0 0 46 46" fill="none" xmlns="http://www.w3.org/2000/svg">
<circle cx="22.665" cy="23.1674" r="22.5" fill="#AA198D"/>
<path d="M34.7843 11.1154H10.5456C8.86241 11.1154 7.44849 12.5293 7.44849 14.2125V32.1222C7.44849 33.8054 8.86241 35.2193 10.5456 35.2193H34.7843C36.4675 35.2193 37.8814 33.8054 37.8814 32.1222V14.2125C37.8814 12.5293 36.4675 11.1154 34.7843 11.1154ZM33.9763 13.4719L22.665 22.3594L11.3536 13.4719H33.9763ZM34.7843 32.8628H10.5456C10.1417 32.8628 9.80502 32.5261 9.80502 32.1222V15.2898L21.9243 24.7832C22.1263 24.9179 22.3956 25.0526 22.665 25.0526C22.9343 25.0526 23.2036 24.9852 23.4056 24.7832L35.5249 15.2898V32.1222C35.5249 32.5261 35.1882 32.8628 34.7843 32.8628Z" fill="white"/>
</svg>
