<svg width="46" height="46" viewBox="0 0 46 46" fill="none" xmlns="http://www.w3.org/2000/svg">
<circle cx="22.665" cy="22.922" r="22.5" fill="#00A03B"/>
<path d="M27.7057 21.7315H23.9251V17.9509C23.9251 17.2508 23.365 16.6907 22.6649 16.6907C21.9647 16.6907 21.4047 17.2508 21.4047 17.9509V21.7315H17.624C16.9239 21.7315 16.3638 22.2916 16.3638 22.9918C16.3638 23.6919 16.9239 24.252 17.624 24.252H21.4047V28.0326C21.4047 28.7328 21.9647 29.2929 22.6649 29.2929C23.365 29.2929 23.9251 28.7328 23.9251 28.0326V24.252H27.7057C28.4059 24.252 28.966 23.6919 28.966 22.9918C28.966 22.2916 28.4059 21.7315 27.7057 21.7315Z" fill="white"/>
<path d="M22.665 10.3898C15.8038 10.3898 10.1328 15.9907 10.1328 22.9219C10.1328 29.8532 15.7338 35.4541 22.665 35.4541C29.5962 35.4541 35.1972 29.8532 35.1972 22.9219C35.1972 15.9907 29.5962 10.3898 22.665 10.3898ZM22.665 33.0037C17.134 33.0037 12.5832 28.5229 12.5832 22.9219C12.5832 17.321 17.064 12.8402 22.665 12.8402C28.266 12.8402 32.7467 17.321 32.7467 22.9219C32.7467 28.5229 28.266 33.0037 22.665 33.0037Z" fill="white"/>
</svg>
