<svg width="194" height="28" viewBox="0 0 194 28" fill="none" xmlns="http://www.w3.org/2000/svg">
<g clip-path="url(#clip0)">
<path d="M9.12774 22.9484L6.04486 17.2097H3.44557V22.9484H0V6.83993H7.55608C8.33231 6.82401 9.10464 6.95378 9.83298 7.2225C10.4725 7.46357 11.0556 7.8337 11.5457 8.30982C12.0125 8.78016 12.3762 9.34246 12.6136 9.96094C12.8678 10.6018 12.9977 11.2851 12.9965 11.9745C13.0058 12.6181 12.9035 13.2585 12.6942 13.8672C12.5042 14.3821 12.2245 14.8593 11.8681 15.2767C11.5408 15.6518 11.1607 15.9774 10.7397 16.2432C10.3312 16.481 9.88991 16.6574 9.42999 16.7668L13.0771 22.9081L9.12774 22.9484ZM7.11279 14.1894C7.73581 14.2097 8.34482 14.0021 8.8255 13.6055C9.05459 13.4099 9.23687 13.1655 9.35892 12.8902C9.48097 12.6149 9.53968 12.3157 9.53074 12.0148C9.53968 11.7138 9.48097 11.4147 9.35892 11.1394C9.23687 10.8641 9.05459 10.6196 8.8255 10.4241C8.34967 10.0189 7.73723 9.81006 7.11279 9.84013H3.44557V14.1894H7.11279Z" fill="black"/>
<path d="M23.8166 23.2302C22.667 23.2415 21.5255 23.0366 20.4517 22.6262C19.4675 22.2295 18.5753 21.6353 17.8301 20.8803C17.085 20.1252 16.5028 19.2255 16.1195 18.2366C15.6923 17.1747 15.48 16.0386 15.4949 14.8941C15.48 13.7431 15.6922 12.6005 16.1195 11.5315C16.5262 10.5465 17.1217 9.65041 17.8725 8.89373C18.6364 8.13761 19.5489 7.54798 20.5524 7.16207C22.7254 6.32977 25.1296 6.32977 27.3025 7.16207C28.306 7.54798 29.2185 8.13761 29.9824 8.89373C30.7332 9.65041 31.3287 10.5465 31.7354 11.5315C32.1215 12.6087 32.2926 13.7511 32.2391 14.8941C32.2541 16.0386 32.0418 17.1747 31.6145 18.2366C31.22 19.2351 30.6223 20.1409 29.8592 20.8965C29.0962 21.6521 28.1844 22.2411 27.1816 22.6262C26.1076 23.0361 24.9662 23.241 23.8166 23.2302ZM23.8166 20.1898C24.5113 20.1995 25.1995 20.0551 25.8316 19.7669C26.4212 19.5113 26.9499 19.1339 27.3831 18.6595C27.8141 18.1996 28.1496 17.6589 28.3704 17.0688C28.6086 16.424 28.7313 15.7425 28.7331 15.0552C28.7277 14.3683 28.605 13.6873 28.3704 13.0417C28.206 12.3016 27.8676 11.6114 27.3831 11.0281C26.9556 10.5474 26.4253 10.1689 25.8316 9.92064C25.1931 9.6548 24.5083 9.51793 23.8166 9.51793C23.125 9.51793 22.4401 9.6548 21.8017 9.92064C21.208 10.1689 20.6777 10.5474 20.2502 11.0281C19.8233 11.5179 19.4949 12.0853 19.283 12.6993C19.0484 13.345 18.9257 14.026 18.9203 14.7129C18.9221 15.4001 19.0449 16.0817 19.283 16.7265C19.4949 17.3405 19.8233 17.9079 20.2502 18.3977C20.6833 18.8721 21.2121 19.2496 21.8017 19.5052C22.412 19.8845 23.1014 20.1187 23.8166 20.1898Z" fill="black"/>
<path d="M42.979 23.23C41.8229 23.2396 40.6751 23.0347 39.5938 22.626C38.5842 22.2473 37.6596 21.6725 36.8737 20.9346C36.1044 20.1806 35.4885 19.2849 35.0602 18.2968C34.6063 17.2204 34.3799 16.0619 34.3953 14.8939C34.3799 13.726 34.6063 12.5674 35.0602 11.491C35.482 10.4994 36.0987 9.60244 36.8737 8.85326C37.6589 8.10944 38.5832 7.52782 39.5938 7.14174C40.6751 6.73297 41.8229 6.52815 42.979 6.53768C43.7909 6.53043 44.5993 6.64582 45.3768 6.87997C46.0466 7.0849 46.6843 7.38316 47.2708 7.76594C47.8011 8.11668 48.2822 8.53652 48.7014 9.01435C49.0886 9.47157 49.4327 9.96363 49.7291 10.4842L46.7872 11.934C46.4289 11.2547 45.9015 10.6791 45.2559 10.2627C44.5808 9.81801 43.7875 9.58649 42.979 9.59828C42.2861 9.58545 41.5987 9.72284 40.964 10.001C40.3521 10.2479 39.8019 10.626 39.3521 11.1084C38.8933 11.589 38.5369 12.1576 38.3043 12.7797C38.0528 13.4214 37.923 14.1041 37.9214 14.7932C37.8843 15.5685 38.0078 16.3432 38.2841 17.0686C38.5168 17.6907 38.8732 18.2592 39.3319 18.7398C39.7817 19.2223 40.332 19.6003 40.9439 19.8473C41.5815 20.1157 42.2669 20.2527 42.9588 20.25C43.7673 20.2618 44.5607 20.0302 45.2357 19.5855C45.8909 19.1717 46.4205 18.5869 46.7671 17.8941L49.7089 19.3237C49.4125 19.8443 49.0685 20.3364 48.6813 20.7936C48.2625 21.2777 47.7815 21.7043 47.2507 22.0622C45.9739 22.8885 44.4798 23.3161 42.9588 23.2904L42.979 23.23Z" fill="black"/>
<path d="M62.7058 22.9486L57.8296 16.4851L56.5602 17.9953V22.9486H53.1348V6.8402H56.5602V14.0286L62.2827 6.82007H66.4939L60.1065 14.391L66.9573 22.9486H62.7058Z" fill="black"/>
<path d="M69.9795 22.9485V6.84009H81.4043V9.86042H73.3445V13.2432H81.1625V16.2635H73.4049V19.9282H81.4647V22.9485H69.9795Z" fill="black"/>
<path d="M89.3832 22.9486V9.8404H84.6279V6.82007H97.5236V9.8404H92.8086V22.9486H89.3832Z" fill="black"/>
<path d="M137.239 22.9485V6.84009H148.664V9.86042H140.604V13.2432H148.422V16.2635H140.664V22.9485H137.239Z" fill="black"/>
<path d="M152.512 22.9485V6.84009H155.937V22.9485H152.512Z" fill="black"/>
<path d="M169.148 22.5975L165.944 16.8589H163.425V22.5975H160V6.48907H167.556C168.332 6.47503 169.104 6.60474 169.833 6.87164C170.47 7.11767 171.052 7.4872 171.546 7.95896C172.012 8.4293 172.376 8.9916 172.614 9.61008C172.868 10.2509 172.998 10.9343 172.996 11.6236C173.006 12.2672 172.904 12.9076 172.694 13.5164C172.504 14.0312 172.225 14.5084 171.868 14.9259C171.534 15.3015 171.147 15.627 170.72 15.8924C170.318 16.1299 169.883 16.3064 169.43 16.4159L173.057 22.5572L169.148 22.5975ZM167.133 13.8385C167.762 13.8583 168.377 13.651 168.866 13.2546C169.091 13.0571 169.27 12.8118 169.388 12.5366C169.507 12.2614 169.562 11.9633 169.551 11.6639C169.562 11.3645 169.507 11.0664 169.388 10.7912C169.27 10.516 169.091 10.2707 168.866 10.0732C168.382 9.66847 167.763 9.46008 167.133 9.48926H163.425V13.8385H167.133Z" fill="black"/>
<path d="M190.555 22.9485V11.6525L186.001 22.9485H184.51L179.956 11.6525V22.9485H176.51V6.84009H181.346L185.255 16.5857L189.164 6.84009H194V22.9485H190.555Z" fill="black"/>
<path d="M129.541 14.0888C129.561 11.4832 128.806 8.93044 127.372 6.75454C125.937 4.57863 123.888 2.8777 121.485 1.86765C119.081 0.857608 116.431 0.583992 113.872 1.08154C111.312 1.57908 108.958 2.82535 107.109 4.66215C105.26 6.49895 103.998 8.84345 103.484 11.3981C102.971 13.9527 103.228 16.6022 104.224 19.0103C105.22 21.4184 106.91 23.4765 109.078 24.9233C111.247 26.3702 113.797 27.1405 116.404 27.1366C119.874 27.1367 123.204 25.7646 125.665 23.3199C128.127 20.8753 129.52 17.5567 129.541 14.0888ZM113.422 22.7672C112.757 22.888 112.838 22.5658 113.039 22.3041C113.121 22.187 113.216 22.079 113.321 21.9819C114.711 20.4113 115.799 19.8274 113.986 19.8274C112.173 19.8274 111.588 19.8274 111.105 19.3039C110.646 18.4182 110.47 17.4132 110.601 16.4245C110.601 14.6123 110.017 15.6996 108.425 17.089L108.123 17.3709C107.84 17.5722 107.538 17.6528 107.659 16.9883C108.02 15.1459 108.918 13.4509 110.238 12.1155C111.611 11.4198 113.057 10.8795 114.55 10.5046C118.701 7.50446 122.61 6.31646 123.537 6.92053C124.464 7.52459 122.953 11.7329 119.95 15.901C119.565 17.3924 119.018 18.8374 118.318 20.21C117.006 21.5153 115.338 22.4048 113.523 22.7672H113.422Z" fill="#00567A"/>
<path d="M119.567 13.2632C119.547 13.7078 119.396 14.1365 119.132 14.4953C118.869 14.8541 118.505 15.127 118.087 15.2796C117.669 15.4322 117.214 15.4578 116.782 15.353C116.349 15.2482 115.957 15.0178 115.655 14.6908C115.353 14.3638 115.154 13.9548 115.084 13.5153C115.014 13.0758 115.076 12.6255 115.262 12.221C115.447 11.8165 115.749 11.4759 116.128 11.2422C116.506 11.0084 116.946 10.8919 117.391 10.9074C117.689 10.9177 117.983 10.987 118.254 11.1113C118.525 11.2356 118.769 11.4125 118.971 11.6315C119.174 11.8506 119.33 12.1076 119.433 12.3877C119.535 12.6678 119.581 12.9654 119.567 13.2632Z" fill="#00567A"/>
</g>
<defs>
<clipPath id="clip0">
<rect y="0.8396" width="194" height="27" fill="white"/>
</clipPath>
</defs>
</svg>
