<svg width="57" height="57" viewBox="0 0 57 57" fill="none" xmlns="http://www.w3.org/2000/svg">
<circle cx="28.5" cy="28.5" r="28.5" fill="#00A03B"/>
<path d="M48.6048 29.1021L45.8919 26.3065C45.4397 25.8405 44.7615 25.6076 44.0832 25.6076C43.405 25.6076 42.7268 25.8405 42.2746 26.3065L41.8225 26.7724V17.9195C41.8225 16.7547 40.9182 15.5898 39.5617 15.5898H19.8931C18.5366 15.5898 17.6323 16.5217 17.6323 17.9195V38.4209C17.6323 39.5858 18.5366 40.7506 19.8931 40.7506H30.5187L30.0665 42.1484C29.8404 43.0803 30.0665 44.0122 30.7447 44.7111C31.1969 45.1771 31.8751 45.41 32.5534 45.41C32.7794 45.41 33.0055 45.41 33.2316 45.41L37.0749 44.2452C37.527 44.0122 37.9792 44.0122 38.2053 43.5463L48.6048 32.8296C49.0569 32.3637 49.283 31.6648 49.283 30.9659C49.5091 30.267 49.283 29.5681 48.6048 29.1021ZM20.1192 18.1525H39.3356V29.1021L31.8751 36.7901C31.6491 37.2561 31.423 37.489 31.1969 37.955H20.1192V18.1525ZM32.5534 42.6144L33.2316 40.0517L35.0402 41.9155L32.5534 42.6144ZM37.301 40.5177L34.588 37.722L40.6921 31.6648L43.405 34.4604L37.301 40.5177ZM45.2136 32.5967L42.5007 29.801L44.0832 28.1702L47.0222 30.9659L45.2136 32.5967Z" fill="white"/>
<path d="M25.3193 24.4425H34.3624C35.0406 24.4425 35.7189 23.7436 35.7189 23.0447C35.7189 22.3458 35.0406 21.8798 34.3624 21.8798H25.3193C24.415 21.8798 23.9629 22.3458 23.9629 23.0447C23.9629 23.7436 24.415 24.4425 25.3193 24.4425Z" fill="white"/>
<path d="M34.3624 30.0338C35.0406 30.0338 35.7189 29.3349 35.7189 28.636C35.7189 27.9371 35.0406 27.2382 34.3624 27.2382H25.3193C24.415 27.4711 23.9629 27.9371 23.9629 28.8689C23.9629 29.5679 24.415 30.0338 25.3193 30.0338H34.3624Z" fill="white"/>
</svg>
