<svg width="102" height="37" viewBox="0 0 102 37" fill="none" xmlns="http://www.w3.org/2000/svg">
<path d="M94.8236 9.11175V10.6122C92.6511 8.86169 89.9801 7.93286 87.0598 7.93286C79.6522 7.93286 73.8472 14.1846 73.8472 22.1868C73.8472 25.7592 75.058 29.1529 77.3017 31.7608C79.759 34.6545 83.5341 36.3692 87.4516 36.3692C90.265 36.3692 92.7224 35.4761 94.8236 33.6899V35.1903C94.8236 35.5118 95.1085 35.7976 95.429 35.7976H101.27C101.59 35.7976 101.875 35.5118 101.875 35.1903V9.11175C101.875 8.79024 101.59 8.50445 101.27 8.50445H95.429C95.1085 8.50445 94.8236 8.79024 94.8236 9.11175ZM95.3578 22.1868C95.3578 25.9021 92.5443 29.5459 88.235 29.5459C84.1039 29.5459 81.1123 26.3665 81.1123 22.1868C81.1123 17.5426 84.5312 14.7919 88.1282 14.7919C92.6511 14.7919 95.3578 18.4715 95.3578 22.1868Z" fill="#00567A"/>
<path d="M17.5778 29.7603C15.9395 29.7603 14.7643 29.2602 13.9808 28.2599C13.3754 27.5097 13.1261 26.5094 13.1261 24.9018V14.8276H20.6761C20.9967 14.8276 21.246 14.5776 21.246 14.2561V9.07607C21.246 8.75456 20.9967 8.50449 20.6761 8.50449H13.1261V1.5383C13.1261 1.21678 12.8412 0.930988 12.5206 0.930988L6.3951 0.895264C6.07458 0.895264 5.78967 1.18106 5.78967 1.50257V8.46876H1.48043C1.15991 8.46876 0.875 8.75456 0.875 9.07607V14.1846C0.875 14.5061 1.15991 14.7919 1.48043 14.7919H5.78967V24.1873C5.78967 28.0455 6.3951 30.4748 7.78403 32.3682C9.70716 34.9403 12.9124 36.3335 17.1148 36.3335C20.3556 36.3335 22.4212 35.5476 23.5252 34.6545C23.8457 34.4044 23.917 33.8328 23.7389 33.547C23.5965 33.3327 21.1035 29.3316 21.1035 29.3316C20.8898 28.9744 20.3912 28.8672 19.9995 29.1173C19.4653 29.4031 18.3969 29.7603 17.5778 29.7603Z" fill="#00567A"/>
<path d="M35.3848 7.89709C31.6454 7.89709 28.2265 9.39751 25.8404 12.184C23.5611 14.8276 22.2791 18.3642 22.2791 22.151C22.2791 30.5104 28.0841 36.3334 36.382 36.3334C40.0146 36.3334 43.6116 34.9759 46.1401 32.7253C46.247 32.6181 46.3894 32.511 46.5319 32.3681C46.7456 32.1537 46.7812 31.7965 46.6031 31.5821C45.9621 30.7248 44.4307 28.6885 43.7184 27.7239C43.5047 27.4382 43.0774 27.4024 42.8281 27.6525C42.65 27.8311 42.4719 28.0097 42.2583 28.1526C41.0474 29.1529 39.1243 30.3318 36.5601 30.3318C32.7494 30.3318 29.8291 27.7597 29.4018 24.0086H47.2085C47.6359 24.0086 48.0277 23.6871 48.0633 23.2227C48.0989 22.8655 48.1345 22.4011 48.1345 21.8652C48.1345 18.1142 46.8524 14.6489 44.5731 12.0411C42.187 9.36178 38.9106 7.89709 35.3848 7.89709ZM35.3848 13.9345C37.6641 13.9345 40.2995 15.6849 40.62 18.5429H29.7223C30.0428 16.2922 32.2865 13.9345 35.3848 13.9345Z" fill="#00567A"/>
<path d="M61.3826 29.3315V25.4376C61.3826 23.83 61.7031 22.0795 62.3085 20.2576C62.9852 18.1856 63.9824 16.4351 65.0864 15.1491L66.7602 12.9699V22.1153L61.3826 29.3315Z" fill="#00A03B"/>
<path d="M66.7957 12.9699L70.357 8.32582C70.6419 7.93285 71.1049 7.82568 71.5323 7.96857C71.9596 8.14719 72.2445 8.57588 72.2445 9.07602V14.8276L66.7957 22.1153V12.9699Z" fill="#AFCB37"/>
<path d="M72.2448 14.8275V18.1499C72.316 19.8646 72.0311 21.7937 71.3545 23.7943C70.749 25.6162 69.9655 27.188 69.004 28.4384L66.8315 31.2963V22.1152L72.2448 14.8275Z" fill="#3C7E79"/>
<path d="M66.7958 22.1153V31.2964L63.2344 35.9048C62.9495 36.2977 62.4866 36.4049 62.0592 36.262C61.6318 36.0834 61.3469 35.6547 61.3469 35.1546V29.3316L66.7958 22.1153Z" fill="#00567A"/>
<path d="M60.6347 29.3315V25.4376C60.6347 23.83 60.3142 22.0795 59.7088 20.2576C59.0321 18.1856 58.0349 16.4351 56.9309 15.1491L55.2571 12.9699V22.1153L60.6347 29.3315Z" fill="#00A03B"/>
<path d="M55.1859 12.9699L51.6246 8.32582C51.3397 7.93285 50.8767 7.82568 50.4493 7.96857C50.022 8.14719 49.7371 8.57588 49.7371 9.07602L49.7727 14.8276L55.2215 22.0796V12.9699H55.1859Z" fill="#AFCB37"/>
<path d="M49.7726 14.8275V18.1499C49.7014 19.8646 49.9863 21.7937 50.663 23.7943C51.2684 25.6162 52.0519 27.188 53.0134 28.4384L55.1859 31.2963V22.1152L49.7726 14.8275Z" fill="#3C7E79"/>
<path d="M55.1858 22.1153V31.2964L58.7471 35.9048C59.0321 36.2977 59.495 36.4049 59.9224 36.262C60.3498 36.0834 60.6347 35.6547 60.6347 35.1546V29.3316L55.1858 22.1153Z" fill="#00567A"/>
</svg>
