<svg width="39" height="39" viewBox="0 0 39 39" fill="none" xmlns="http://www.w3.org/2000/svg">
<path d="M19.9473 0.230225C9.45546 0.230225 0.947266 8.73842 0.947266 19.2302C0.947266 29.722 9.45546 38.2302 19.9473 38.2302C30.4391 38.2302 38.9473 29.722 38.9473 19.2302C38.9473 8.73842 30.4391 0.230225 19.9473 0.230225ZM28.6225 15.0444C28.6309 15.2314 28.6349 15.4193 28.6349 15.608C28.6349 21.3707 24.2485 28.0159 16.2268 28.0162H16.2271H16.2268C13.7639 28.0162 11.4721 27.2943 9.54214 26.0572C9.88338 26.0975 10.2307 26.1175 10.5824 26.1175C12.6257 26.1175 14.5061 25.4205 15.9989 24.2507C14.0898 24.2153 12.4802 22.9545 11.9247 21.2217C12.1905 21.2727 12.4639 21.3005 12.7443 21.3005C13.1423 21.3005 13.5279 21.2469 13.8944 21.1469C11.8989 20.7474 10.3957 18.9838 10.3957 16.872C10.3957 16.8523 10.3957 16.8346 10.3962 16.8164C10.9839 17.1431 11.6559 17.3397 12.3714 17.3617C11.2005 16.5804 10.4307 15.2447 10.4307 13.7317C10.4307 12.9326 10.6467 12.1841 11.0213 11.5396C13.1719 14.1784 16.3859 15.9139 20.0105 16.0962C19.9357 15.7767 19.8971 15.4439 19.8971 15.1018C19.8971 12.6943 21.8503 10.7412 24.2586 10.7412C25.5131 10.7412 26.6461 11.2714 27.4419 12.1191C28.4355 11.9232 29.3684 11.5602 30.2112 11.0607C29.885 12.0786 29.1939 12.9326 28.2934 13.4728C29.1756 13.3672 30.0164 13.1333 30.7977 12.7859C30.2141 13.6606 29.4739 14.4289 28.6225 15.0444Z" fill="#00567A"/>
</svg>
