<svg width="26" height="26" viewBox="0 0 26 26" fill="none" xmlns="http://www.w3.org/2000/svg">
<circle cx="12.6692" cy="12.5846" r="12.5" fill="#C1C1C1"/>
<path d="M12.702 6.42519C11.2629 6.42519 10.0571 7.59206 10.0571 9.07009C10.0571 10.5092 11.224 11.715 12.702 11.715C14.1412 11.715 15.3469 10.5481 15.3469 9.07009C15.3469 7.63095 14.1801 6.42519 12.702 6.42519ZM18.5753 18.9496C18.1863 18.9496 17.8752 18.6384 17.8752 18.2495C17.8752 15.4101 15.5414 13.0763 12.702 13.0763C9.86265 13.0763 7.52891 15.4101 7.52891 18.2495C7.52891 18.6384 7.21774 18.9496 6.82878 18.9496C6.43983 18.9496 6.12866 18.6384 6.12866 18.2495C6.12866 15.5268 7.80118 13.193 10.1738 12.2206C9.24032 11.4816 8.65688 10.3536 8.65688 9.07009C8.65688 6.85304 10.4461 5.06384 12.6631 5.06384C14.8802 5.06384 16.6694 6.85304 16.6694 9.07009C16.6694 10.3536 16.086 11.4816 15.1525 12.2206C17.5251 13.193 19.1976 15.5268 19.1976 18.2495C19.2754 18.6384 18.9642 18.9496 18.5753 18.9496Z" fill="white"/>
</svg>
